<svg xmlns="http://www.w3.org/2000/svg" xmlns:xlink="http://www.w3.org/1999/xlink" width="246" zoomAndPan="magnify" viewBox="0 0 184.5 159.749995" height="213" preserveAspectRatio="xMidYMid meet" version="1.0"><defs><g/><clipPath id="3e284c759d"><path d="M 0 7.355469 L 143.492188 7.355469 L 143.492188 151.859375 L 0 151.859375 Z M 0 7.355469 " clip-rule="nonzero"/></clipPath><clipPath id="a4d7332b55"><path d="M 0 0.355469 L 143.492188 0.355469 L 143.492188 144.859375 L 0 144.859375 Z M 0 0.355469 " clip-rule="nonzero"/></clipPath><clipPath id="0f4873e513"><rect x="0" width="144" y="0" height="145"/></clipPath><clipPath id="a42b4f8d5f"><path d="M 8.226562 17.082031 L 134.601562 17.082031 L 134.601562 143.453125 L 8.226562 143.453125 Z M 8.226562 17.082031 " clip-rule="nonzero"/></clipPath><clipPath id="675712dd00"><path d="M 0.226562 0.0820312 L 126.601562 0.0820312 L 126.601562 126.453125 L 0.226562 126.453125 Z M 0.226562 0.0820312 " clip-rule="nonzero"/></clipPath><clipPath id="abe8557d6d"><rect x="0" width="127" y="0" height="127"/></clipPath><clipPath id="540e81a2f4"><path d="M 57 29.191406 L 124.3125 29.191406 L 124.3125 107 L 57 107 Z M 57 29.191406 " clip-rule="nonzero"/></clipPath><clipPath id="9848012047"><path d="M 18.097656 68 L 71 68 L 71 132.414062 L 18.097656 132.414062 Z M 18.097656 68 " clip-rule="nonzero"/></clipPath><clipPath id="f92abac530"><path d="M 0.117188 108 L 27.640625 108 L 27.640625 138 L 0.117188 138 Z M 0.117188 108 " clip-rule="nonzero"/></clipPath><clipPath id="df826a0ec5"><rect x="0" width="28" y="0" height="148"/></clipPath></defs><g clip-path="url(#3e284c759d)"><g transform="matrix(1, 0, 0, 1, 0, 7)"><g clip-path="url(#0f4873e513)"><g clip-path="url(#a4d7332b55)"><path fill="#03a652" d="M 0 0.355469 L 143.492188 0.355469 L 143.492188 144.96875 L 0 144.96875 Z M 0 0.355469 " fill-opacity="1" fill-rule="nonzero"/></g></g></g></g><g clip-path="url(#a42b4f8d5f)"><g transform="matrix(1, 0, 0, 1, 8, 17)"><g clip-path="url(#abe8557d6d)"><g clip-path="url(#675712dd00)"><path fill="#ffffff" d="M 0.226562 0.0820312 L 126.601562 0.0820312 L 126.601562 126.453125 L 0.226562 126.453125 Z M 0.226562 0.0820312 " fill-opacity="1" fill-rule="nonzero"/></g></g></g></g><g clip-path="url(#540e81a2f4)"><path fill="#288a2f" d="M 63.078125 65.464844 C 59.984375 71.011719 58.320312 76.363281 57.898438 81.285156 C 60.253906 83.253906 62.46875 85.472656 64.46875 87.953125 C 69.292969 79.449219 77.953125 68.605469 92.785156 61.859375 C 92.785156 61.859375 76.960938 70.777344 69.257812 95.277344 C 70.976562 98.640625 72.070312 102.003906 72.523438 105.25 C 72.8125 105.410156 73.085938 105.542969 73.324219 105.628906 C 88.480469 110.960938 105.332031 96.867188 107.285156 75.828125 C 110.722656 38.8125 124.28125 29.195312 124.28125 29.195312 C 124.28125 29.195312 80.289062 34.640625 63.078125 65.464844 Z M 63.078125 65.464844 " fill-opacity="1" fill-rule="nonzero"/></g><g clip-path="url(#9848012047)"><path fill="#288a2f" d="M 65.765625 94.0625 C 51.808594 71 18.097656 68.015625 18.097656 68.015625 C 18.097656 68.015625 26.863281 71.191406 30.558594 102.011719 C 32.480469 118.027344 46.851562 126.535156 59.019531 124.972656 C 61.121094 124.703125 62.933594 124.34375 64.625 125.527344 C 65.378906 126.058594 67.246094 129.9375 68.058594 132.40625 L 68.5 131.324219 C 68.882812 130.382812 68.957031 129.335938 68.671875 128.359375 C 62.304688 106.863281 43 92.097656 43 92.097656 C 58.40625 98.46875 65.5625 110.746094 68.316406 116.960938 C 71.507812 110.949219 71.015625 102.738281 65.765625 94.0625 Z M 65.765625 94.0625 " fill-opacity="1" fill-rule="nonzero"/></g><g transform="matrix(1, 0, 0, 1, 149, 6)"><g clip-path="url(#df826a0ec5)"><g fill="#03a652" fill-opacity="1"><g transform="translate(4.565237, 35.989835)"><g><path d="M 17.0625 0 C 17.542969 0 17.789062 -0.25 17.789062 -0.726562 L 17.789062 -4.628906 C 17.789062 -5.089844 17.542969 -5.355469 17.0625 -5.355469 L 8.886719 -5.355469 L 8.886719 -26.519531 C 8.886719 -26.996094 8.636719 -27.246094 8.160156 -27.246094 L 3.421875 -27.246094 C 2.945312 -27.246094 2.695312 -26.996094 2.695312 -26.519531 L 2.695312 -0.726562 C 2.695312 -0.25 2.945312 0 3.421875 0 Z M 17.0625 0 "/></g></g></g><g fill="#03a652" fill-opacity="1"><g transform="translate(1.383171, 86.578608)"><g><path d="M 13.425781 0 C 21.160156 0 23.09375 -4.027344 23.09375 -7.714844 C 23.09375 -10.429688 21.800781 -12.859375 18.445312 -13.996094 C 20.71875 -15.21875 22.066406 -17.402344 22.066406 -20.238281 C 22.066406 -24.105469 19.847656 -27.246094 13.109375 -27.246094 L 3.421875 -27.246094 C 2.945312 -27.246094 2.695312 -26.996094 2.695312 -26.519531 L 2.695312 -0.726562 C 2.695312 -0.25 2.945312 0 3.421875 0 Z M 8.886719 -21.886719 L 13 -21.886719 C 15.75 -21.886719 16.53125 -20.753906 16.53125 -19.15625 C 16.53125 -17.507812 15.75 -16.300781 13.285156 -16.300781 L 8.886719 -16.300781 Z M 8.886719 -11.546875 L 13.390625 -11.546875 C 16 -11.546875 16.886719 -10.253906 16.886719 -8.480469 C 16.886719 -6.792969 16.160156 -5.355469 13.285156 -5.355469 L 8.886719 -5.355469 Z M 8.886719 -11.546875 "/></g></g></g><g clip-path="url(#f92abac530)"><g fill="#03a652" fill-opacity="1"><g transform="translate(0.177228, 137.167381)"><g><path d="M 14.507812 -27.246094 C 14.011719 -28.273438 13.195312 -28.273438 12.71875 -27.246094 L 0.566406 -0.871094 C 0.335938 -0.355469 0.566406 0 1.101562 0 L 6.332031 0 C 6.742188 0 7.023438 -0.195312 7.164062 -0.566406 L 8.371094 -3.582031 L 18.835938 -3.582031 L 20.042969 -0.566406 C 20.183594 -0.195312 20.46875 0 20.878906 0 L 26.109375 0 C 26.660156 0 26.871094 -0.355469 26.660156 -0.871094 Z M 13.605469 -16.746094 L 16.957031 -8.355469 L 10.269531 -8.355469 Z M 13.605469 -16.746094 "/></g></g></g></g></g></g></svg>