<svg xmlns="http://www.w3.org/2000/svg" xmlns:xlink="http://www.w3.org/1999/xlink" width="788" zoomAndPan="magnify" viewBox="0 0 591 147.750002" height="197" preserveAspectRatio="xMidYMid meet" version="1.0"><defs><g/><clipPath id="e1727a4e7c"><path d="M 0.5 0 L 590.5 0 L 590.5 147.5 L 0.5 147.5 Z M 0.5 0 " clip-rule="nonzero"/></clipPath><clipPath id="5903b4e9c2"><path d="M 0.5 0 L 589.78125 0 L 589.78125 147.417969 L 0.5 147.417969 Z M 0.5 0 " clip-rule="nonzero"/></clipPath><clipPath id="f9b6023b7c"><path d="M 0.5 0 L 589.78125 0 L 589.78125 147.417969 L 0.5 147.417969 Z M 0.5 0 " clip-rule="nonzero"/></clipPath><clipPath id="1c1e986fce"><rect x="0" width="590" y="0" height="148"/></clipPath><clipPath id="99db81c5ca"><path d="M 8.734375 9.734375 L 135.234375 9.734375 L 135.234375 136.234375 L 8.734375 136.234375 Z M 8.734375 9.734375 " clip-rule="nonzero"/></clipPath><clipPath id="b1958e8912"><path d="M 0.734375 0.734375 L 127.234375 0.734375 L 127.234375 127.234375 L 0.734375 127.234375 Z M 0.734375 0.734375 " clip-rule="nonzero"/></clipPath><clipPath id="fbe94fbeb4"><rect x="0" width="128" y="0" height="128"/></clipPath><clipPath id="e9922ce6fa"><path d="M 58 21.859375 L 124.9375 21.859375 L 124.9375 100 L 58 100 Z M 58 21.859375 " clip-rule="nonzero"/></clipPath><clipPath id="cdad36cd48"><path d="M 18.617188 60 L 71 60 L 71 125.183594 L 18.617188 125.183594 Z M 18.617188 60 " clip-rule="nonzero"/></clipPath></defs><g clip-path="url(#e1727a4e7c)"><path fill="#ffffff" d="M 0.5 0 L 590.5 0 L 590.5 147.5 L 0.5 147.5 Z M 0.5 0 " fill-opacity="1" fill-rule="nonzero"/></g><g clip-path="url(#5903b4e9c2)"><g transform="matrix(1, 0, 0, 1, 0.000000000000000056, 0.000000000000037039)"><g clip-path="url(#1c1e986fce)"><g clip-path="url(#f9b6023b7c)"><path fill="#03a652" d="M 0.5 0 L 589.597656 0 L 589.597656 147.417969 L 0.5 147.417969 Z M 0.5 0 " fill-opacity="1" fill-rule="nonzero"/></g></g></g></g><g clip-path="url(#99db81c5ca)"><g transform="matrix(1, 0, 0, 1, 8, 9)"><g clip-path="url(#fbe94fbeb4)"><g clip-path="url(#b1958e8912)"><path fill="#ffffff" d="M 0.734375 0.734375 L 127.234375 0.734375 L 127.234375 127.234375 L 0.734375 127.234375 Z M 0.734375 0.734375 " fill-opacity="1" fill-rule="nonzero"/></g></g></g></g><g clip-path="url(#e9922ce6fa)"><path fill="#288a2f" d="M 63.640625 58.167969 C 60.542969 63.71875 58.878906 69.078125 58.457031 74.003906 C 60.8125 75.972656 63.03125 78.195312 65.035156 80.679688 C 69.863281 72.164062 78.53125 61.3125 93.378906 54.558594 C 93.378906 54.558594 77.539062 63.484375 69.828125 88.011719 C 71.550781 91.378906 72.644531 94.746094 73.097656 97.992188 C 73.386719 98.152344 73.65625 98.285156 73.898438 98.371094 C 89.066406 103.710938 105.9375 89.601562 107.894531 68.539062 C 111.332031 31.488281 124.90625 21.859375 124.90625 21.859375 C 124.90625 21.859375 80.871094 27.3125 63.640625 58.167969 Z M 63.640625 58.167969 " fill-opacity="1" fill-rule="nonzero"/></g><g clip-path="url(#cdad36cd48)"><path fill="#288a2f" d="M 66.332031 86.792969 C 52.359375 63.707031 18.617188 60.722656 18.617188 60.722656 C 18.617188 60.722656 27.390625 63.898438 31.089844 94.75 C 33.015625 110.78125 47.398438 119.296875 59.578125 117.734375 C 61.683594 117.46875 63.5 117.105469 65.191406 118.292969 C 65.945312 118.820312 67.816406 122.703125 68.625 125.175781 L 69.066406 124.09375 C 69.453125 123.152344 69.527344 122.101562 69.238281 121.125 C 62.867188 99.605469 43.542969 84.828125 43.542969 84.828125 C 58.964844 91.203125 66.125 103.496094 68.886719 109.714844 C 72.082031 103.695312 71.585938 95.476562 66.332031 86.792969 Z M 66.332031 86.792969 " fill-opacity="1" fill-rule="nonzero"/></g><g fill="#f3f7fd" fill-opacity="1"><g transform="translate(158.129695, 88.684077)"><g><path d="M 19.699219 0 C 20.25 0 20.539062 -0.285156 20.539062 -0.839844 L 20.539062 -5.34375 C 20.539062 -5.875 20.25 -6.183594 19.699219 -6.183594 L 10.257812 -6.183594 L 10.257812 -30.613281 C 10.257812 -31.164062 9.972656 -31.453125 9.417969 -31.453125 L 3.953125 -31.453125 C 3.398438 -31.453125 3.113281 -31.164062 3.113281 -30.613281 L 3.113281 -0.839844 C 3.113281 -0.285156 3.398438 0 3.953125 0 Z M 19.699219 0 "/></g></g></g><g fill="#f3f7fd" fill-opacity="1"><g transform="translate(179.442265, 88.684077)"><g><path d="M 11.527344 -23.222656 C 8.949219 -23.222656 6.183594 -22.730469 3.644531 -21.910156 C 3.132812 -21.726562 2.929688 -21.398438 3.09375 -20.84375 L 4.257812 -17.222656 C 4.421875 -16.6875 4.832031 -16.546875 5.34375 -16.75 C 7.25 -17.507812 9.253906 -17.980469 10.976562 -17.980469 C 13.414062 -17.980469 15.214844 -17.015625 15.214844 -14.414062 L 15.214844 -13.269531 C 13.71875 -13.699219 12.203125 -13.902344 10.769531 -13.902344 C 5.835938 -13.902344 1.863281 -11.445312 1.863281 -6.632812 C 1.863281 -1.925781 5.570312 0.492188 9.625 0.492188 C 11.957031 0.492188 14.457031 -0.308594 16.21875 -2.621094 L 16.832031 -0.714844 C 16.953125 -0.246094 17.28125 0 17.753906 0 L 20.925781 0 C 21.460938 0 21.765625 -0.285156 21.765625 -0.839844 L 21.765625 -14.601562 C 21.765625 -20.925781 17.078125 -23.222656 11.527344 -23.222656 Z M 11.40625 -4.054688 C 9.808594 -4.054688 8.394531 -4.875 8.394531 -6.695312 C 8.394531 -8.765625 10.175781 -9.5625 12.410156 -9.5625 C 13.308594 -9.5625 14.25 -9.417969 15.214844 -9.195312 L 15.214844 -8.109375 C 15.214844 -5.039062 13.023438 -4.054688 11.40625 -4.054688 Z M 11.40625 -4.054688 "/></g></g></g><g fill="#f3f7fd" fill-opacity="1"><g transform="translate(203.825811, 88.684077)"><g><path d="M 8.558594 0 C 9.089844 0 9.398438 -0.285156 9.398438 -0.839844 L 9.398438 -11.363281 L 17.40625 -0.53125 C 17.652344 -0.183594 18 0 18.410156 0 L 24.367188 0 C 25.0625 0 25.328125 -0.429688 24.898438 -1.023438 L 16.175781 -12.304688 L 24.386719 -21.683594 C 24.859375 -22.257812 24.652344 -22.730469 23.9375 -22.730469 L 17.691406 -22.730469 C 17.261719 -22.730469 16.933594 -22.566406 16.6875 -22.257812 L 9.398438 -13.371094 L 9.398438 -30.613281 C 9.398438 -31.164062 9.089844 -31.453125 8.558594 -31.453125 L 3.6875 -31.453125 C 3.152344 -31.453125 2.847656 -31.164062 2.847656 -30.613281 L 2.847656 -0.839844 C 2.847656 -0.285156 3.152344 0 3.6875 0 Z M 8.558594 0 "/></g></g></g><g fill="#f3f7fd" fill-opacity="1"><g transform="translate(230.072416, 88.684077)"><g><path d="M 13.289062 -23.222656 C 6.714844 -23.222656 1.882812 -18.632812 1.882812 -11.363281 C 1.882812 -3.972656 7.1875 0.492188 13.636719 0.492188 C 16.789062 0.492188 20.046875 -0.613281 22.8125 -2.824219 C 23.324219 -3.234375 23.40625 -3.664062 23.035156 -4.035156 L 20.578125 -7.125 C 20.230469 -7.496094 19.902344 -7.515625 19.453125 -7.1875 C 17.691406 -5.816406 15.707031 -5.078125 13.84375 -5.078125 C 10.976562 -5.078125 8.3125 -6.859375 8.171875 -10.382812 L 23.445312 -10.382812 C 24.183594 -10.382812 24.410156 -10.6875 24.410156 -11.445312 C 24.410156 -18.632812 19.902344 -23.222656 13.289062 -23.222656 Z M 13.453125 -18.101562 C 15.335938 -18.101562 17.304688 -17.199219 17.816406 -14.621094 L 8.558594 -14.621094 C 9.296875 -17.242188 11.628906 -18.101562 13.453125 -18.101562 Z M 13.453125 -18.101562 "/></g></g></g><g fill="#f3f7fd" fill-opacity="1"><g transform="translate(256.278074, 88.684077)"><g><path d="M 16.648438 -23.222656 C 13.964844 -23.222656 11.40625 -22.277344 9.417969 -20.660156 L 9.441406 -30.613281 C 9.441406 -31.164062 9.132812 -31.453125 8.601562 -31.453125 L 3.726562 -31.453125 C 3.195312 -31.453125 2.886719 -31.164062 2.886719 -30.613281 L 2.847656 -0.839844 C 2.847656 -0.285156 3.152344 0 3.6875 0 L 6.859375 0 C 7.332031 0 7.617188 -0.246094 7.78125 -0.714844 L 8.519531 -3.050781 C 10.484375 -0.820312 13.371094 0.492188 16.648438 0.492188 C 23.199219 0.492188 28.011719 -4.832031 28.011719 -11.363281 C 28.011719 -17.898438 23.199219 -23.222656 16.648438 -23.222656 Z M 15.296875 -5.179688 C 11.875 -5.179688 9.113281 -7.945312 9.113281 -11.363281 C 9.113281 -14.785156 11.875 -17.546875 15.296875 -17.546875 C 18.714844 -17.546875 21.480469 -14.785156 21.480469 -11.363281 C 21.480469 -7.945312 18.714844 -5.179688 15.296875 -5.179688 Z M 15.296875 -5.179688 "/></g></g></g><g fill="#f3f7fd" fill-opacity="1"><g transform="translate(286.148429, 88.684077)"><g><path d="M 11.527344 -23.222656 C 8.949219 -23.222656 6.183594 -22.730469 3.644531 -21.910156 C 3.132812 -21.726562 2.929688 -21.398438 3.09375 -20.84375 L 4.257812 -17.222656 C 4.421875 -16.6875 4.832031 -16.546875 5.34375 -16.75 C 7.25 -17.507812 9.253906 -17.980469 10.976562 -17.980469 C 13.414062 -17.980469 15.214844 -17.015625 15.214844 -14.414062 L 15.214844 -13.269531 C 13.71875 -13.699219 12.203125 -13.902344 10.769531 -13.902344 C 5.835938 -13.902344 1.863281 -11.445312 1.863281 -6.632812 C 1.863281 -1.925781 5.570312 0.492188 9.625 0.492188 C 11.957031 0.492188 14.457031 -0.308594 16.21875 -2.621094 L 16.832031 -0.714844 C 16.953125 -0.246094 17.28125 0 17.753906 0 L 20.925781 0 C 21.460938 0 21.765625 -0.285156 21.765625 -0.839844 L 21.765625 -14.601562 C 21.765625 -20.925781 17.078125 -23.222656 11.527344 -23.222656 Z M 11.40625 -4.054688 C 9.808594 -4.054688 8.394531 -4.875 8.394531 -6.695312 C 8.394531 -8.765625 10.175781 -9.5625 12.410156 -9.5625 C 13.308594 -9.5625 14.25 -9.417969 15.214844 -9.195312 L 15.214844 -8.109375 C 15.214844 -5.039062 13.023438 -4.054688 11.40625 -4.054688 Z M 11.40625 -4.054688 "/></g></g></g><g fill="#f3f7fd" fill-opacity="1"><g transform="translate(310.531975, 88.684077)"><g><path d="M 9.847656 0.492188 C 14.292969 0.492188 19.042969 -1.1875 19.042969 -6.878906 C 19.042969 -10.6875 16.136719 -12.449219 13.414062 -13.65625 C 10.875 -14.804688 8.496094 -15.441406 8.496094 -16.769531 C 8.496094 -17.691406 9.316406 -18.082031 10.546875 -18.082031 C 11.875 -18.082031 13.738281 -17.628906 15.480469 -17.035156 C 15.992188 -16.851562 16.402344 -17.078125 16.546875 -17.589844 L 17.589844 -21.132812 C 17.773438 -21.664062 17.527344 -22.011719 17.058594 -22.15625 C 14.804688 -22.851562 12.429688 -23.222656 10.585938 -23.222656 C 6.246094 -23.222656 2.027344 -21.152344 2.027344 -15.929688 C 2.027344 -12.695312 4.382812 -10.933594 6.859375 -9.625 C 9.582031 -8.210938 12.511719 -7.472656 12.511719 -6.226562 C 12.511719 -4.933594 11.425781 -4.523438 9.910156 -4.523438 C 8.414062 -4.523438 6.429688 -4.914062 4.464844 -5.527344 C 3.910156 -5.691406 3.582031 -5.527344 3.398438 -5.039062 L 2.230469 -1.515625 C 2.066406 -1.042969 2.230469 -0.613281 2.824219 -0.472656 C 5.425781 0.164062 7.679688 0.492188 9.847656 0.492188 Z M 9.847656 0.492188 "/></g></g></g><g fill="#f3f7fd" fill-opacity="1"><g transform="translate(331.373663, 88.684077)"><g><path d="M 6.082031 -24.386719 C 8.210938 -24.386719 9.828125 -25.984375 9.828125 -28.136719 C 9.828125 -30.222656 8.210938 -31.882812 6.082031 -31.882812 C 3.992188 -31.882812 2.355469 -30.222656 2.355469 -28.136719 C 2.355469 -25.984375 3.992188 -24.386719 6.082031 -24.386719 Z M 8.558594 0 C 9.089844 0 9.398438 -0.285156 9.398438 -0.839844 L 9.398438 -21.890625 C 9.398438 -22.441406 9.089844 -22.730469 8.558594 -22.730469 L 3.6875 -22.730469 C 3.152344 -22.730469 2.847656 -22.441406 2.847656 -21.890625 L 2.847656 -0.839844 C 2.847656 -0.285156 3.152344 0 3.6875 0 Z M 8.558594 0 "/></g></g></g><g fill="#f3f7fd" fill-opacity="1"><g transform="translate(343.657565, 88.684077)"><g><path d="M 16.441406 -23.222656 C 13.800781 -23.222656 10.933594 -22.257812 8.4375 -19.925781 L 7.78125 -22.011719 C 7.617188 -22.484375 7.332031 -22.730469 6.859375 -22.730469 L 3.6875 -22.730469 C 3.152344 -22.730469 2.847656 -22.441406 2.847656 -21.890625 L 2.847656 -0.839844 C 2.847656 -0.285156 3.152344 0 3.6875 0 L 8.558594 0 C 9.089844 0 9.398438 -0.285156 9.398438 -0.839844 L 9.398438 -12.695312 C 9.398438 -15.601562 11.363281 -17.652344 14.109375 -17.652344 C 16.894531 -17.652344 18.410156 -15.5 18.410156 -12.714844 L 18.410156 -0.839844 C 18.410156 -0.285156 18.695312 0 19.25 0 L 24.101562 0 C 24.652344 0 24.941406 -0.285156 24.941406 -0.839844 L 24.941406 -13.882812 C 24.941406 -17.957031 23.242188 -23.222656 16.441406 -23.222656 Z M 16.441406 -23.222656 "/></g></g></g><g fill="#f3f7fd" fill-opacity="1"><g transform="translate(371.214453, 88.684077)"><g/></g></g><g fill="#f3f7fd" fill-opacity="1"><g transform="translate(384.235389, 88.684077)"><g><path d="M 16.75 -31.453125 C 16.175781 -32.640625 15.234375 -32.640625 14.683594 -31.453125 L 0.65625 -1.003906 C 0.390625 -0.410156 0.65625 0 1.269531 0 L 7.308594 0 C 7.78125 0 8.109375 -0.226562 8.273438 -0.65625 L 9.664062 -4.136719 L 21.746094 -4.136719 L 23.140625 -0.65625 C 23.300781 -0.226562 23.628906 0 24.101562 0 L 30.140625 0 C 30.777344 0 31.023438 -0.410156 30.777344 -1.003906 Z M 15.707031 -19.332031 L 19.574219 -9.644531 L 11.855469 -9.644531 Z M 15.707031 -19.332031 "/></g></g></g><g fill="#f3f7fd" fill-opacity="1"><g transform="translate(415.682179, 88.684077)"><g><path d="M 22.238281 -22.730469 C 21.765625 -22.730469 21.480469 -22.484375 21.316406 -22.011719 L 20.578125 -19.71875 C 18.695312 -21.929688 15.910156 -23.222656 12.796875 -23.222656 C 6.429688 -23.222656 1.824219 -17.898438 1.824219 -11.363281 C 1.824219 -4.832031 6.429688 -0.164062 12.796875 -0.164062 C 15.316406 -0.164062 17.710938 -1.042969 19.617188 -3.277344 L 19.617188 -1.066406 C 19.617188 2.582031 17.445312 3.972656 14.519531 3.972656 C 12.183594 3.972656 9.582031 3.050781 7.125 1.699219 C 6.632812 1.414062 6.265625 1.472656 6 1.925781 L 4.035156 5.652344 C 3.746094 6.101562 3.808594 6.511719 4.28125 6.777344 C 7.863281 8.722656 11.507812 9.789062 14.949219 9.789062 C 21.683594 9.789062 26.210938 6.0625 26.210938 -1.25 L 26.25 -21.890625 C 26.25 -22.441406 25.964844 -22.730469 25.433594 -22.730469 Z M 14.191406 -5.835938 C 10.976562 -5.835938 8.355469 -8.273438 8.355469 -11.691406 C 8.355469 -15.113281 10.976562 -17.546875 14.191406 -17.546875 C 17.386719 -17.546875 19.984375 -15.113281 19.984375 -11.691406 C 19.984375 -8.273438 17.386719 -5.835938 14.191406 -5.835938 Z M 14.191406 -5.835938 "/></g></g></g><g fill="#f3f7fd" fill-opacity="1"><g transform="translate(444.795028, 88.684077)"><g><path d="M 8.558594 0 C 9.089844 0 9.398438 -0.285156 9.398438 -0.839844 L 9.398438 -12.347656 C 9.398438 -15.644531 10.710938 -17.363281 13.351562 -17.363281 C 13.820312 -17.363281 14.558594 -17.28125 15.316406 -17.117188 C 15.847656 -16.996094 16.238281 -17.179688 16.359375 -17.691406 L 17.425781 -21.847656 C 17.546875 -22.339844 17.386719 -22.730469 16.914062 -22.871094 C 16.15625 -23.097656 15.417969 -23.222656 14.804688 -23.222656 C 12.574219 -23.222656 10.175781 -22.257812 8.457031 -19.738281 L 7.742188 -22.011719 C 7.597656 -22.484375 7.289062 -22.730469 6.820312 -22.730469 L 3.664062 -22.730469 C 3.113281 -22.730469 2.824219 -22.441406 2.824219 -21.890625 L 2.847656 -0.839844 C 2.847656 -0.285156 3.152344 0 3.6875 0 Z M 8.558594 0 "/></g></g></g><g fill="#f3f7fd" fill-opacity="1"><g transform="translate(463.200408, 88.684077)"><g><path d="M 6.082031 -24.386719 C 8.210938 -24.386719 9.828125 -25.984375 9.828125 -28.136719 C 9.828125 -30.222656 8.210938 -31.882812 6.082031 -31.882812 C 3.992188 -31.882812 2.355469 -30.222656 2.355469 -28.136719 C 2.355469 -25.984375 3.992188 -24.386719 6.082031 -24.386719 Z M 8.558594 0 C 9.089844 0 9.398438 -0.285156 9.398438 -0.839844 L 9.398438 -21.890625 C 9.398438 -22.441406 9.089844 -22.730469 8.558594 -22.730469 L 3.6875 -22.730469 C 3.152344 -22.730469 2.847656 -22.441406 2.847656 -21.890625 L 2.847656 -0.839844 C 2.847656 -0.285156 3.152344 0 3.6875 0 Z M 8.558594 0 "/></g></g></g><g fill="#f3f7fd" fill-opacity="1"><g transform="translate(475.48431, 88.684077)"><g><path d="M 11.957031 0.492188 C 13.085938 0.492188 14.292969 0.410156 15.582031 0.0390625 C 16.117188 -0.101562 16.300781 -0.511719 16.15625 -1.023438 L 15.277344 -4.464844 C 15.132812 -4.976562 14.765625 -5.160156 14.210938 -5.015625 C 13.699219 -4.875 13.207031 -4.832031 12.796875 -4.832031 C 11.527344 -4.832031 10.6875 -5.445312 10.6875 -6.941406 L 10.6875 -17.589844 L 14.601562 -17.589844 C 15.152344 -17.589844 15.441406 -17.898438 15.441406 -18.429688 L 15.441406 -21.890625 C 15.441406 -22.441406 15.152344 -22.730469 14.601562 -22.730469 L 10.6875 -22.730469 L 10.6875 -29.488281 C 10.6875 -30.019531 10.382812 -30.328125 9.847656 -30.328125 L 4.996094 -30.328125 C 4.445312 -30.328125 4.15625 -30.019531 4.15625 -29.488281 L 4.15625 -22.730469 L 2.292969 -22.730469 C 1.761719 -22.730469 1.453125 -22.441406 1.453125 -21.890625 L 1.453125 -18.429688 C 1.453125 -17.898438 1.761719 -17.589844 2.292969 -17.589844 L 4.15625 -17.589844 L 4.15625 -6.429688 C 4.15625 -1.90625 7.308594 0.492188 11.957031 0.492188 Z M 11.957031 0.492188 "/></g></g></g><g fill="#f3f7fd" fill-opacity="1"><g transform="translate(493.234548, 88.684077)"><g><path d="M 13.289062 -23.222656 C 6.714844 -23.222656 1.882812 -18.632812 1.882812 -11.363281 C 1.882812 -3.972656 7.1875 0.492188 13.636719 0.492188 C 16.789062 0.492188 20.046875 -0.613281 22.8125 -2.824219 C 23.324219 -3.234375 23.40625 -3.664062 23.035156 -4.035156 L 20.578125 -7.125 C 20.230469 -7.496094 19.902344 -7.515625 19.453125 -7.1875 C 17.691406 -5.816406 15.707031 -5.078125 13.84375 -5.078125 C 10.976562 -5.078125 8.3125 -6.859375 8.171875 -10.382812 L 23.445312 -10.382812 C 24.183594 -10.382812 24.410156 -10.6875 24.410156 -11.445312 C 24.410156 -18.632812 19.902344 -23.222656 13.289062 -23.222656 Z M 13.453125 -18.101562 C 15.335938 -18.101562 17.304688 -17.199219 17.816406 -14.621094 L 8.558594 -14.621094 C 9.296875 -17.242188 11.628906 -18.101562 13.453125 -18.101562 Z M 13.453125 -18.101562 "/></g></g></g><g fill="#f3f7fd" fill-opacity="1"><g transform="translate(519.440207, 88.684077)"><g><path d="M 14.292969 0.492188 C 17.898438 0.492188 21.152344 -0.878906 23.300781 -3.113281 C 23.652344 -3.480469 23.589844 -3.851562 23.160156 -4.238281 L 19.902344 -7.351562 C 19.472656 -7.71875 19.125 -7.617188 18.734375 -7.226562 C 17.671875 -5.957031 16.09375 -5.179688 14.292969 -5.179688 C 10.792969 -5.179688 8.253906 -7.863281 8.253906 -11.363281 C 8.253906 -14.886719 10.792969 -17.546875 14.292969 -17.546875 C 16.117188 -17.546875 17.671875 -16.75 18.734375 -15.5 C 19.125 -15.089844 19.515625 -15.03125 19.902344 -15.378906 L 23.160156 -18.46875 C 23.570312 -18.816406 23.628906 -19.289062 23.261719 -19.679688 C 21.070312 -21.890625 17.898438 -23.222656 14.292969 -23.222656 C 7.125 -23.222656 1.800781 -18.304688 1.800781 -11.363281 C 1.800781 -4.421875 7.125 0.492188 14.292969 0.492188 Z M 14.292969 0.492188 "/></g></g></g><g fill="#f3f7fd" fill-opacity="1"><g transform="translate(544.499367, 88.684077)"><g><path d="M 8.558594 0 C 9.089844 0 9.398438 -0.285156 9.398438 -0.839844 L 9.398438 -12.695312 C 9.398438 -15.601562 11.363281 -17.652344 14.109375 -17.652344 C 16.914062 -17.652344 18.410156 -15.5625 18.410156 -12.714844 L 18.410156 -0.839844 C 18.410156 -0.285156 18.695312 0 19.25 0 L 24.101562 0 C 24.652344 0 24.941406 -0.285156 24.941406 -0.839844 L 24.941406 -13.882812 C 24.941406 -18 23.222656 -23.222656 16.441406 -23.222656 C 13.453125 -23.222656 11.179688 -22.113281 9.398438 -20.355469 L 9.398438 -30.613281 C 9.398438 -31.164062 9.089844 -31.453125 8.558594 -31.453125 L 3.6875 -31.453125 C 3.152344 -31.453125 2.847656 -31.164062 2.847656 -30.613281 L 2.847656 -0.839844 C 2.847656 -0.285156 3.152344 0 3.6875 0 Z M 8.558594 0 "/></g></g></g></svg>