<svg xmlns="http://www.w3.org/2000/svg" xmlns:xlink="http://www.w3.org/1999/xlink" width="142" zoomAndPan="magnify" viewBox="0 0 106.5 103.5" height="138" preserveAspectRatio="xMidYMid meet" version="1.0"><defs><clipPath id="6f3e5c4033"><path d="M 68.226562 51.496094 L 74.863281 51.496094 L 74.863281 65.59375 L 68.226562 65.59375 Z M 68.226562 51.496094 " clip-rule="nonzero"/></clipPath><clipPath id="f5273a1576"><path d="M 0.226562 0.496094 L 6.863281 0.496094 L 6.863281 14.59375 L 0.226562 14.59375 Z M 0.226562 0.496094 " clip-rule="nonzero"/></clipPath><clipPath id="827356afca"><rect x="0" width="7" y="0" height="15"/></clipPath><clipPath id="95b3cc178d"><path d="M 39 0 L 105.996094 0 L 105.996094 78 L 39 78 Z M 39 0 " clip-rule="nonzero"/></clipPath><clipPath id="6a86fbd684"><path d="M 0.0078125 38 L 53 38 L 53 103 L 0.0078125 103 Z M 0.0078125 38 " clip-rule="nonzero"/></clipPath></defs><g clip-path="url(#6f3e5c4033)"><g transform="matrix(1, 0, 0, 1, 68, 51)"><g clip-path="url(#827356afca)"><g clip-path="url(#f5273a1576)"><path fill="#ffffff" d="M 0.226562 0.496094 L 6.863281 0.496094 L 6.863281 14.601562 L 0.226562 14.601562 Z M 0.226562 0.496094 " fill-opacity="1" fill-rule="nonzero"/></g></g></g></g><g clip-path="url(#95b3cc178d)"><path fill="#288a2f" d="M 44.890625 36.195312 C 41.800781 41.730469 40.144531 47.070312 39.722656 51.984375 C 42.070312 53.945312 44.28125 56.160156 46.28125 58.636719 C 51.09375 50.148438 59.734375 39.328125 74.535156 32.597656 C 74.535156 32.597656 58.746094 41.496094 51.058594 65.945312 C 52.773438 69.300781 53.867188 72.660156 54.316406 75.898438 C 54.605469 76.054688 54.875 76.1875 55.117188 76.273438 C 70.238281 81.597656 87.054688 67.53125 89.003906 46.535156 C 92.433594 9.601562 105.964844 0.00390625 105.964844 0.00390625 C 105.964844 0.00390625 62.066406 5.4375 44.890625 36.195312 Z M 44.890625 36.195312 " fill-opacity="1" fill-rule="nonzero"/></g><g clip-path="url(#6a86fbd684)"><path fill="#288a2f" d="M 47.574219 64.730469 C 33.644531 41.71875 0.0078125 38.742188 0.0078125 38.742188 C 0.0078125 38.742188 8.753906 41.910156 12.441406 72.664062 C 14.359375 88.644531 28.699219 97.136719 40.839844 95.578125 C 42.9375 95.308594 44.75 94.949219 46.4375 96.132812 C 47.1875 96.660156 49.050781 100.53125 49.859375 102.996094 L 50.300781 101.917969 C 50.683594 100.976562 50.757812 99.933594 50.472656 98.957031 C 44.117188 77.507812 24.859375 62.773438 24.859375 62.773438 C 40.230469 69.128906 47.367188 81.382812 50.121094 87.582031 C 53.304688 81.582031 52.8125 73.390625 47.574219 64.730469 Z M 47.574219 64.730469 " fill-opacity="1" fill-rule="nonzero"/></g></svg>